<svg id="Capa_1" enable-background="new 0 0 512 512" height="512" viewBox="0 0 512 512" width="512" xmlns="http://www.w3.org/2000/svg"><path d="m255.018 294.241c8.904-42.546-5.796-68.061-40.367-74.609-33.558-6.356-62.795-1.49-77.376 43.859-13.305 41.382-12.464 104.558 23.619 112.11s85.22-38.814 94.124-81.36z" fill="#cc624e"/><path d="m214.651 219.632c-10.531-1.995-20.637-2.883-29.997-1.763 3.923.388 7.928.992 11.997 1.763 34.571 6.548 49.272 32.063 40.367 74.609-7.533 35.993-43.859 74.717-76.717 81.219.199.046.393.099.594.141 36.083 7.552 85.219-38.814 94.124-81.36 8.904-42.546-5.797-68.061-40.368-74.609z" fill="#bc574a"/><path d="m193.158 493.524c38.638-19.861 49.197-47.331 32.526-78.294-16.183-30.056-38.36-49.694-82.747-32.476-40.503 15.711-89.026 56.121-72.182 88.89s83.765 41.741 122.403 21.88z" fill="#cc624e"/><path d="m225.683 415.23c-13.419-24.922-30.973-42.657-61.878-38.181 20.188 3.384 33.313 18.559 43.878 38.181 16.671 30.963 6.112 58.434-32.526 78.294-11.358 5.838-25.16 9.182-39.415 10.165 20.269 1.382 41.301-1.882 57.415-10.165 38.638-19.86 49.198-47.331 32.526-78.294z" fill="#bc574a"/><path d="m266.98 256c0-46.776-23.608-51.039-36.834-101.495-19.531-74.512 26.477-146.505 105.025-146.505s124.556 71.993 105.025 146.505c-13.225 50.456-36.834 54.719-36.834 101.495s23.608 51.039 36.834 101.495c19.532 74.512-26.477 146.505-105.025 146.505s-124.556-71.993-105.025-146.505c13.226-50.456 36.834-54.719 36.834-101.495z" fill="#ffaa5c"/><path d="m403.362 256c0-46.776 23.608-51.039 36.834-101.495 19.532-74.512-26.476-146.505-105.025-146.505-3.052 0-6.048.121-9 .335 73.018 5.276 114.797 74.553 96.025 146.171-13.226 50.456-36.834 54.719-36.834 101.495s23.608 51.039 36.834 101.495c18.772 71.618-23.007 140.895-96.025 146.171 2.952.213 5.948.335 9 .335 78.548 0 124.556-71.993 105.025-146.505-13.225-50.458-36.834-54.721-36.834-101.497z" fill="#ff9838"/><path d="m426.584 306.834c-8.636-14.762-15.457-26.421-15.457-50.839s6.821-36.077 15.457-50.839c7.111-12.154 15.17-25.931 21.203-48.948 10.693-40.791 3.26-81.765-20.392-112.416-21.792-28.24-54.502-43.792-92.106-43.792-37.603 0-70.313 15.552-92.105 43.793-23.652 30.65-31.084 71.625-20.392 112.416 6.033 23.017 14.093 36.794 21.203 48.948 6.701 11.454 12.306 21.043 14.483 36.17-.928-1.825-1.942-3.588-3.066-5.273-8.318-12.46-21.6-20.495-39.478-23.881-21.052-3.987-37.073-3.004-50.416 3.094-16.481 7.532-28.146 22.557-35.663 45.935-2.119 6.595-3.879 13.637-5.23 20.93-.755 4.08 1.94 8.001 6.021 8.757 4.078.752 8.002-1.94 8.757-6.021 1.234-6.665 2.836-13.08 4.759-19.066 6.151-19.129 15.179-31.187 27.602-36.865 10.379-4.742 23.523-5.378 41.372-1.996 13.764 2.608 23.781 8.481 29.774 17.459 7.496 11.228 9.082 27.503 4.714 48.373-3.917 18.712-17.17 39.984-34.587 55.513-17.535 15.632-36.528 23.182-50.825 20.189-23.383-4.894-25.687-40.088-25.592-54.992.026-4.151-3.317-7.536-7.467-7.563-.017 0-.032 0-.049 0-4.127 0-7.487 3.334-7.513 7.467-.184 28.988 7.209 50.432 20.77 61.72-.798.292-1.59.571-2.397.884-16.031 6.218-32.388 15.699-46.058 26.696-10.856 8.734-25.108 22.598-31.36 39.057-4.509 11.871-4.118 23.542 1.13 33.75 8.972 17.456 30.333 30.11 58.606 34.717 7.377 1.202 14.854 1.791 22.237 1.791 19.063 0 37.493-3.925 51.915-11.337 21.487-11.045 35.31-24.621 41.161-40.379 1.751 2.704 3.607 5.348 5.587 7.914 21.792 28.24 54.502 43.793 92.105 43.793 54.423 0 98.68-33.668 112.75-85.771 1.082-4.007-1.289-8.132-5.295-9.213-4.004-1.081-8.132 1.288-9.213 5.295-5.853 21.675-17.762 40.131-34.438 53.374-4.534 3.601-9.377 6.753-14.475 9.463 5.609-19.859 8.921-43.71 9.461-69.004.089-4.15-3.203-7.585-7.352-7.673-.055-.001-.11-.002-.163-.002-4.075 0-7.423 3.26-7.51 7.354-.625 29.298-5.087 56.354-12.601 76.733-7.532 2.235-15.447 3.627-23.649 4.156v-272.652c0-4.151-3.364-7.515-7.514-7.515s-7.514 3.364-7.514 7.515v272.659c-8.225-.528-16.138-1.925-23.652-4.152-11.583-31.321-15.556-76.402-10.617-121.59 2.648-24.229 6.229-38.91 9.388-51.863 4.254-17.445 7.929-32.51 7.929-63.111s-3.675-45.666-7.93-63.111c-1.373-5.629-2.793-11.45-4.184-18.186-.827-4.01-4.869-6.666-8.879-5.839-4.011.827-6.668 4.869-5.839 8.879 1.444 6.998 2.896 12.951 4.301 18.708 4.191 17.184 7.502 30.756 7.502 59.55 0 28.795-3.31 42.367-7.502 59.55-3.268 13.4-6.972 28.587-9.728 53.793-4.556 41.688-1.78 83.552 7.367 115.798-11.907-6.333-22.353-15.109-30.85-26.12-20.783-26.934-27.254-63.173-17.752-99.424 5.51-21.019 12.693-33.297 19.638-45.169 9.007-15.395 17.513-29.937 17.513-58.428s-8.507-43.032-17.513-58.427c-6.945-11.873-14.128-24.15-19.638-45.169-9.502-36.251-3.031-72.49 17.752-99.424 8.495-11.009 18.939-19.784 30.844-26.116-8.181 28.779-11.286 65.179-8.547 102.774.289 3.954 3.585 6.969 7.487 6.969.183 0 .368-.006.554-.02 4.14-.302 7.25-3.902 6.949-8.041-2.964-40.667 1.426-81.082 11.758-109.111 7.512-2.226 15.423-3.623 23.647-4.151v178.717c0 4.151 3.364 7.514 7.514 7.514s7.514-3.364 7.514-7.514v-178.72c8.225.528 16.138 1.925 23.652 4.152 11.583 31.32 15.557 76.401 10.618 121.591-2.648 24.229-6.229 38.91-9.388 51.863-4.255 17.444-7.93 32.51-7.93 63.11s3.675 45.666 7.93 63.11c1.484 6.086 3.02 12.379 4.514 19.808.829 4.121 5.036 6.805 9.124 5.824 3.877-.93 6.396-4.881 5.609-8.788-1.555-7.728-3.127-14.173-4.648-20.405-4.191-17.183-7.502-30.755-7.502-59.549s3.311-42.366 7.502-59.549c3.269-13.4 6.973-28.588 9.729-53.793 4.556-41.69 1.78-83.554-7.368-115.799 11.908 6.333 22.354 15.109 30.851 26.12 20.783 26.934 27.254 63.173 17.752 99.424-5.51 21.019-12.692 33.297-19.638 45.169-9.007 15.395-17.513 29.937-17.513 58.427 0 28.491 8.507 43.032 17.513 58.428 6.946 11.872 14.128 24.15 19.638 45.169 3.025 11.542 4.445 23.232 4.221 34.747-.08 4.149 3.218 7.578 7.368 7.659.05.001.099.001.149.001 4.082 0 7.43-3.269 7.511-7.369.25-12.897-1.335-25.968-4.71-38.849-6.03-23.014-14.089-36.791-21.2-48.945zm-204.998 53.937c-2.273 10.06-3.452 20.104-3.559 29.977-5.616-6.538-11.591-11.477-18.135-15.031 7.281-3.777 14.584-8.788 21.694-14.946zm2.569 92.427c-4.001 12.885-15.639 24.358-34.59 34.099-16.993 8.734-41.846 11.83-64.865 8.078-23.171-3.776-40.986-13.778-47.657-26.754-3.339-6.496-3.484-13.543-.446-21.543 6.727-17.711 32.52-43.004 68.802-57.078 11.408-4.424 24.116-7.534 36.347-5.061 10.013 2.025 18.333 7.977 24.899 15.616 3.886 4.521 7.178 9.511 10.167 14.66 1.518 2.615 2.983 5.274 4.225 8.034 1.272 2.828 2.192 5.793 3.143 8.74 2.167 6.713 2.057 14.502-.025 21.209z"/></svg>