<?xml version="1.0" encoding="iso-8859-1"?>
<!-- Generator: Adobe Illustrator 19.0.0, SVG Export Plug-In . SVG Version: 6.00 Build 0)  -->
<svg version="1.1" id="Capa_1" xmlns="http://www.w3.org/2000/svg" xmlns:xlink="http://www.w3.org/1999/xlink" x="0px" y="0px"
	 viewBox="0 0 512 512" style="enable-background:new 0 0 512 512;" xml:space="preserve">
<path style="fill:#CE8951;" d="M358.804,98.896V74.722h-97.29h-11.026h-97.29v24.174c0,20.961-8.96,40.365-23.57,51.043l0,0
	c-14.61,10.678-23.57,30.083-23.57,51.043v264.616c0,21.46,14.092,38.857,31.474,38.857h112.956h11.026H374.47
	c17.383,0,31.474-17.397,31.474-38.857V200.983c0-20.961-8.96-40.365-23.57-51.043l0,0
	C367.764,139.261,358.804,119.857,358.804,98.896z"/>
<path style="fill:#C4773D;" d="M405.941,200.983v264.615c0,21.465-14.092,38.855-31.473,38.855h-35.627
	c17.381,0,31.473-17.391,31.473-38.855V200.983c0-20.962-8.952-40.364-23.567-51.046c-7.302-5.341-13.196-12.855-17.26-21.666
	c-4.064-8.801-6.307-18.9-6.307-29.37v-24.18h35.627v24.18c0,10.471,2.243,20.569,6.307,29.37
	c4.064,8.811,9.958,16.325,17.26,21.666C396.979,160.619,405.941,180.022,405.941,200.983z"/>
<path style="fill:#FFD04F;" d="M367.897,74.722H144.105c-2.648,0-4.794-2.146-4.794-4.794v-57.59c0-2.648,2.146-4.794,4.794-4.794
	h223.791c2.648,0,4.794,2.146,4.794,4.794v57.59C372.691,72.575,370.544,74.722,367.897,74.722z"/>
<path style="fill:#F9BD16;" d="M367.897,74.722h-44.716V7.544h44.716c2.648,0,4.794,2.146,4.794,4.794v57.59
	C372.691,72.575,370.544,74.722,367.897,74.722z"/>
<rect x="106.061" y="220.02" style="fill:#FFD04F;" width="299.89" height="190.08"/>
<rect x="370.311" y="220.02" style="fill:#F9BD16;" width="35.63" height="190.08"/>
<path style="fill:#EEA33E;" d="M214.868,289.45c-6.071-1.73-10.923-6.222-13.259-12.086c-1.489-3.739-3.717-7.334-6.675-10.547
	c-11.455-12.439-29.533-14.426-40.377-4.439c-10.845,9.987-10.35,28.167,1.106,40.605c2.959,3.213,6.359,5.728,9.963,7.52
	c5.653,2.811,9.73,8.015,10.955,14.208c1.346,6.801,4.664,13.539,9.93,19.257c13.632,14.802,35.144,17.168,48.049,5.283
	s12.316-33.519-1.316-48.321C227.977,295.21,221.535,291.35,214.868,289.45z"/>
<path style="fill:#DF862A;" d="M234.555,349.254c-4.426,4.074-9.857,6.468-15.641,7.262c11.456-12.12,10.41-32.69-2.706-46.943
	c-5.271-5.723-11.708-9.575-18.377-11.476c-6.075-1.73-10.923-6.226-13.257-12.09c-1.489-3.742-3.722-7.333-6.679-10.551
	c-7.091-7.695-16.707-11.386-25.578-10.712c0.684-0.835,1.428-1.619,2.233-2.364c10.853-9.988,28.928-8.006,40.384,4.436
	c2.957,3.219,5.18,6.81,6.669,10.551c2.344,5.864,7.192,10.35,13.267,12.08c6.659,1.901,13.106,5.764,18.367,11.487
	C246.878,315.729,247.461,337.365,234.555,349.254z"/>
<path d="M386.825,143.849c-12.632-9.232-20.478-26.457-20.478-44.953V82.265h1.522c6.819,0,12.365-5.547,12.365-12.366V12.366
	C380.234,5.547,374.688,0,367.869,0H243.864c-4.167,0-7.544,3.377-7.544,7.544s3.377,7.544,7.544,7.544h121.283v52.09h-6.344
	H153.198h-6.343v-52.09h42.533c4.167,0,7.544-3.377,7.544-7.544S193.555,0,189.387,0h-45.255c-6.819,0-12.366,5.547-12.366,12.366
	V69.9c0,6.819,5.547,12.366,12.366,12.366h1.521v16.631c0,18.496-7.846,35.721-20.477,44.953
	c-16.446,12.02-26.663,33.912-26.663,57.133v19.04V410.1v55.499c0,25.586,17.504,46.401,39.018,46.401h236.937
	c21.514,0,39.018-20.815,39.018-46.401V410.1V220.023v-19.04C413.488,177.761,403.272,155.869,386.825,143.849z M134.079,156.029
	c16.445-12.02,26.661-33.913,26.661-57.133V82.265h190.519v16.631c0,23.222,10.217,45.113,26.663,57.133
	c12.632,9.232,20.478,26.457,20.478,44.953v11.496h-72.344c-4.167,0-7.544,3.377-7.544,7.544s3.377,7.544,7.544,7.544H398.4v174.99
	H113.602v-174.99h157.594c4.167,0,7.544-3.377,7.544-7.544s-3.377-7.544-7.544-7.544H113.602v-11.496
	C113.602,182.487,121.448,165.262,134.079,156.029z M374.47,496.912H137.532c-13.196,0-23.931-14.047-23.931-31.313v-47.955H398.4
	v47.955C398.4,482.865,387.665,496.912,374.47,496.912z"/>
<path d="M216.935,282.195c-3.786-1.079-6.818-3.858-8.318-7.625c-1.879-4.715-4.616-9.043-8.134-12.863
	c-14.255-15.48-37.148-17.67-51.037-4.879c-13.886,12.788-13.587,35.786,0.667,51.264c3.518,3.821,7.608,6.904,12.154,9.164
	c3.63,1.805,6.15,5.057,6.914,8.918c1.667,8.424,5.74,16.343,11.781,22.903c7.828,8.5,18.135,13.84,29.022,15.037
	c1.551,0.171,3.087,0.255,4.606,0.255c9.518-0.001,18.295-3.321,25.081-9.571c15.943-14.684,15.549-41.142-0.877-58.98
	C232.752,289.259,225.193,284.548,216.935,282.195z M229.449,343.701c-4.614,4.248-10.944,6.163-17.817,5.416
	c-7.263-0.799-14.214-4.443-19.572-10.261c-4.158-4.515-6.952-9.914-8.079-15.612c-1.681-8.487-7.146-15.592-14.997-19.498
	c-2.892-1.438-5.507-3.414-7.773-5.874c-8.618-9.36-9.312-22.794-1.545-29.946c3.208-2.954,7.364-4.382,11.745-4.382
	c6.229,0,12.914,2.887,17.973,8.382c2.267,2.462,4.022,5.231,5.217,8.228c3.244,8.145,9.878,14.178,18.199,16.55c0,0,0,0,0.001,0
	c5.585,1.591,10.735,4.819,14.893,9.334C238.484,317.758,239.273,334.653,229.449,343.701z"/>
<path d="M289.194,280.824h46.048c4.167,0,7.544-3.377,7.544-7.544s-3.377-7.544-7.544-7.544h-46.048
	c-4.167,0-7.544,3.377-7.544,7.544S285.027,280.824,289.194,280.824z"/>
<path d="M289.194,306.975h83.497c4.167,0,7.544-3.377,7.544-7.544s-3.377-7.544-7.544-7.544h-83.497
	c-4.167,0-7.544,3.377-7.544,7.544S285.027,306.975,289.194,306.975z"/>
<path d="M289.194,333.127h73.728c4.167,0,7.544-3.377,7.544-7.544s-3.377-7.544-7.544-7.544h-73.728
	c-4.167,0-7.544,3.377-7.544,7.544S285.027,333.127,289.194,333.127z"/>
<path d="M289.194,359.279h36.737c4.167,0,7.544-3.377,7.544-7.544s-3.377-7.544-7.544-7.544h-36.737
	c-4.167,0-7.544,3.377-7.544,7.544S285.027,359.279,289.194,359.279z"/>
<path d="M160.949,28.02v25.146c0,4.167,3.377,7.544,7.544,7.544c4.167,0,7.544-3.377,7.544-7.544V28.02
	c0-4.167-3.377-7.544-7.544-7.544S160.949,23.853,160.949,28.02z"/>
<path d="M190.118,28.02v25.146c0,4.167,3.377,7.544,7.544,7.544s7.544-3.377,7.544-7.544V28.02c0-4.167-3.377-7.544-7.544-7.544
	S190.118,23.853,190.118,28.02z"/>
<path d="M226.831,60.71c4.167,0,7.544-3.377,7.544-7.544V28.02c0-4.167-3.377-7.544-7.544-7.544s-7.544,3.377-7.544,7.544v25.146
	C219.288,57.333,222.665,60.71,226.831,60.71z"/>
<path d="M263.545,53.166V28.02c0-4.167-3.377-7.544-7.544-7.544c-4.167,0-7.544,3.377-7.544,7.544v25.146
	c0,4.167,3.377,7.544,7.544,7.544C260.168,60.71,263.545,57.333,263.545,53.166z"/>
<path d="M292.714,53.166V28.02c0-4.167-3.377-7.544-7.544-7.544s-7.544,3.377-7.544,7.544v25.146c0,4.167,3.377,7.544,7.544,7.544
	S292.714,57.333,292.714,53.166z"/>
<path d="M321.883,53.166V28.02c0-4.167-3.377-7.544-7.544-7.544s-7.544,3.377-7.544,7.544v25.146c0,4.167,3.377,7.544,7.544,7.544
	C318.506,60.71,321.883,57.333,321.883,53.166z"/>
<path d="M351.053,53.166V28.02c0-4.167-3.377-7.544-7.544-7.544s-7.544,3.377-7.544,7.544v25.146c0,4.167,3.377,7.544,7.544,7.544
	S351.053,57.333,351.053,53.166z"/>
<g>
</g>
<g>
</g>
<g>
</g>
<g>
</g>
<g>
</g>
<g>
</g>
<g>
</g>
<g>
</g>
<g>
</g>
<g>
</g>
<g>
</g>
<g>
</g>
<g>
</g>
<g>
</g>
<g>
</g>
</svg>
