<svg id="Capa_1" enable-background="new 0 0 512 512" height="512" viewBox="0 0 512 512" width="512" xmlns="http://www.w3.org/2000/svg"><g><g id="Flat_23_"><g><path d="m464.061 431.5c-11.15 38.45-46.67 66.07-88.681 69.2-15.24 1.13-32.23 2.02-50.18 2.64-107.23-36.65-150.291-128.15-150.291-220.73 0-12.55 1.75-25.02 5.08-37.25 0 0 259.595-2.718 267.213-7.435 13.321 18.819 22.44 40.818 25.929 66.015.345 2.889.659 5.741.942 8.56 0 0-37.559 37.616-38.639 55-1.158 18.643 31.104 55.001 31.104 55.001-.777 2.985-1.602 5.983-2.477 8.999z" fill="#eaaa83"/><path d="m325.2 503.34c-22.09.77-45.65 1.16-69.2 1.16-42.69 0-85.38-1.27-119.381-3.8-42.011-3.13-77.531-30.75-88.681-69.2-.874-3.016-1.7-6.014-2.476-8.998 0 0 30.961-36.275 29.798-54.872-1.09-17.423-37.332-55.13-37.332-55.13.283-2.816.596-5.665.941-8.55 3.49-25.2 12.6-47.22 25.91-66.04 7.63 4.72 142.761 7.45 142.761 7.45-1.74 12.17-2.63 24.6-2.63 37.25 0 92.58 47.91 173.97 120.29 220.73z" fill="#e4996d"/><path d="m447.211 237.92c-7.62 4.72-16.61 7.44-26.21 7.44h-293.832v-60.82c100.431-53.4 257.142-35.6 320.042 53.38z" fill="#e4996d"/><path d="m237.94 155.03c-15.3 27.45-25.81 57.94-30.4 90.33h-116.541c-9.61 0-18.6-2.73-26.23-7.45 36.19-51.2 103.441-78.83 173.161-82.88 0 0 0-.01.01 0z" fill="#df8a57"/></g><g><path d="m466.534 422.5h-421.066c-9.28-35.61-11.62-69.35-7.54-110h436.145c4.081 40.64 1.731 74.39-7.539 110z" fill="#fdc072"/><path d="m245.241 422.5h-199.773c-9.28-35.61-11.62-69.35-7.54-110h168.662c4.54 40.1 18.121 77.46 38.651 110z" fill="#ffb25a"/></g><g><path d="m244.561 179.128h-138.47c-43.47-38.2-7.01-85.56 30.3-94.97 5.2-1.32 9.61-4.66 12.4-9.25 8.78-14.42 25.71-23.69 42.92-23.22 3.93.11 6.39-4.07 4.48-7.5-4.87-8.72-6.89-19.41-7.12-28.9-.27-5.71 5.83-9.63 10.86-6.9 19.51 8.16 48.36 4.04 74.84 4.86-12.996 34.214-18.85 147.11-30.21 165.88z" fill="#fdc072"/><path d="m405.91 179.128h-161.35c-16.91-20.32-26.59-43.94-26.59-69.13 0-37.69 21.67-71.85 56.8-96.75 27.14.83 51.79 6.86 61.3 36.64.86 2.69 2.86 4.87 5.44 6.02 8.98 4.01 16.51 10.67 21.59 18.99 2.79 4.58 7.2 7.93 12.39 9.23 37.35 9.34 73.93 56.76 30.42 95z" fill="#fad989"/></g><g><path d="m267.27 452.5h-56.27c-38.66 0-70-31.34-70-70v-30c0-36.61 28.1-66.65 63.91-69.74 36.418 62.379 52.099 122.131 62.36 169.74z" fill="#ffe0b7"/><path d="m371 352.5v30c0 38.66-31.34 70-70 70h-33.73c-38.87-45.76-62.32-105.01-62.36-169.74 2.01-.17 4.04-.26 6.09-.26h90c38.66 0 70 31.34 70 70z" fill="#fff4e5"/><path d="m306.472 327.481c-8.486-4.506-18.348-5.598-27.769-3.074-6.34 1.707-12.041 4.913-16.65 9.332-6.081 5.83-14.943 7.726-22.952 5.117-7.436-2.422-15.466-2.632-23.163-.568-10.07 2.698-18.609 9.007-24.043 17.765-5.818 9.376-7.454 20.393-4.606 31.021s9.773 19.351 19.499 24.562c9.085 4.868 19.634 6.062 29.705 3.364 7.698-2.06 14.547-6.258 19.776-12.074 5.632-6.264 14.255-9.053 22.436-7.044 6.201 1.523 12.741 1.449 19.085-.243 9.421-2.524 17.416-8.4 22.512-16.546 5.456-8.721 7.005-18.959 4.36-28.828s-9.105-17.96-18.19-22.784z" fill="#fdc072"/><path d="m240.02 413.88c-1.15.43-2.33.8-3.53 1.12-10.07 2.7-20.62 1.5-29.7-3.36-9.73-5.21-16.65-13.94-19.5-24.56-2.85-10.63-1.21-21.65 4.6-31.03 4.56-7.33 11.3-12.95 19.29-16.16 5.86 26.38 15.7 51.26 28.84 73.99z" fill="#ffb25a"/></g><g><path d="m121 160.36h300c19.33 0 35 15.67 35 35 0 19.33-15.67 35-35 35h-310c-19.33 0-9.33-70 10-70z" fill="#eaaa83"/><path d="m210.3 230.36h-119.3c-19.33 0-35-15.67-35-35 0-19.331 15.669-35 35-35h112.05c-8.873 22.96-5.818 48.987 7.25 70z" fill="#e4996d"/></g></g><g id="Lineal_Exp_23_"><path d="m241.544 132.877c5.531 0 10.591-2.056 14.456-5.444 3.865 3.388 8.924 5.444 14.455 5.444 12.106 0 21.956-9.849 21.956-21.956 0-4.142-3.357-7.5-7.5-7.5s-7.5 3.358-7.5 7.5c0 3.835-3.12 6.956-6.956 6.956-3.835 0-6.955-3.12-6.955-6.956 0-4.142-3.357-7.5-7.5-7.5s-7.5 3.358-7.5 7.5c0 3.835-3.12 6.956-6.956 6.956-3.835 0-6.955-3.12-6.955-6.956 0-4.142-3.357-7.5-7.5-7.5s-7.5 3.358-7.5 7.5c0 12.107 9.849 21.956 21.955 21.956z"/><path d="m180.713 106.606c4.143 0 7.5-3.358 7.5-7.5 0-3.455 2.811-6.265 6.265-6.265s6.265 2.811 6.265 6.265c0 4.142 3.357 7.5 7.5 7.5s7.5-3.358 7.5-7.5c0-11.726-9.539-21.265-21.265-21.265s-21.265 9.54-21.265 21.265c0 4.142 3.357 7.5 7.5 7.5z"/><path d="m303.758 106.606c4.143 0 7.5-3.358 7.5-7.5 0-3.455 2.811-6.265 6.265-6.265s6.265 2.811 6.265 6.265c0 4.142 3.357 7.5 7.5 7.5s7.5-3.358 7.5-7.5c0-11.726-9.539-21.265-21.265-21.265s-21.265 9.54-21.265 21.265c0 4.142 3.357 7.5 7.5 7.5z"/><path d="m203.245 418.248c7.007 3.754 14.741 5.667 22.573 5.667 4.209 0 8.447-.553 12.613-1.669 9.092-2.434 17.188-7.38 23.414-14.305 3.851-4.283 9.627-6.11 15.069-4.775 7.411 1.819 15.298 1.723 22.814-.282 11.261-3.017 20.824-10.053 26.93-19.813 6.572-10.505 8.436-22.845 5.246-34.746-3.188-11.901-10.971-21.657-21.916-27.469-10.168-5.399-21.969-6.711-33.235-3.692-7.505 2.02-14.383 5.879-19.892 11.161-4.048 3.88-9.965 5.183-15.438 3.4-8.851-2.884-18.335-3.119-27.429-.681-11.918 3.193-22.03 10.671-28.475 21.056-6.922 11.157-8.867 24.268-5.477 36.916 3.392 12.651 11.631 23.032 23.203 29.232zm-4.978-58.239c4.425-7.132 11.39-12.272 19.612-14.476 2.878-.772 5.81-1.157 8.727-1.157 3.448 0 6.877.538 10.173 1.612 10.743 3.498 22.418.881 30.465-6.835 3.694-3.542 8.331-6.137 13.401-7.501 7.58-2.031 15.505-1.161 22.31 2.454 7.228 3.838 12.363 10.267 14.463 18.103 2.1 7.835.865 15.971-3.475 22.909-4.086 6.532-10.512 11.248-18.087 13.277-5.081 1.355-10.394 1.426-15.363.206-10.829-2.658-22.247.911-29.801 9.313-4.278 4.759-9.859 8.163-16.141 9.844-8.22 2.205-16.825 1.233-24.222-2.73-7.881-4.222-13.491-11.287-15.797-19.893-2.305-8.605-.979-17.529 3.735-25.126z"/><path d="m480.577 303.051c-.006-.047-.012-.095-.019-.142-3.897-28.095-14.568-53.423-31.749-75.406.769-.667 1.517-1.364 2.244-2.09 8.026-8.026 12.446-18.699 12.446-30.053 0-19.865-13.7-36.59-32.147-41.224 3.293-11.761 2.191-24.042-3.313-36.021-9.01-19.605-28.922-35.797-50.728-41.248-3.227-.808-5.999-2.888-7.812-5.864-5.93-9.711-14.552-17.294-24.938-21.932-.655-.292-1.146-.821-1.348-1.451-6.267-19.628-18.896-31.986-38.605-37.778-16.305-4.792-35.059-4.373-53.195-3.97-18.465.412-35.909.801-48.312-4.275-4.659-2.353-10.058-2.099-14.527.706-4.542 2.85-7.217 7.921-7 13.254.263 10.468 2.457 20.493 6.235 28.691-18.378.9-35.886 11.104-45.429 26.777-1.802 2.964-4.585 5.051-7.825 5.874-21.786 5.495-41.66 21.698-50.633 41.28-5.478 11.954-6.571 24.209-3.288 35.945-7.389 1.843-14.165 5.658-19.688 11.181-8.026 8.028-12.446 18.701-12.446 30.055 0 12.809 5.696 24.313 14.689 32.112-17.189 21.999-27.859 47.342-31.749 75.45l-.018.139c-5.83 48.859-3.044 87.896 9.314 130.527 11.965 41.258 50.273 71.233 95.326 74.591 33.112 2.464 75.707 3.821 119.938 3.821s86.825-1.357 119.938-3.821c45.052-3.357 83.361-33.333 95.325-74.591 12.359-42.633 15.144-81.672 9.314-130.537zm-383.017-178.622c7.042-15.37 23.385-28.625 40.675-32.987 7.084-1.798 13.109-6.281 16.962-12.619 7.384-12.128 21.99-20.012 36.303-19.624 4.569.113 8.675-2.11 11.028-5.987 2.336-3.85 2.419-8.7.211-12.667-3.744-6.705-5.936-15.733-6.17-25.424 0-.005 0-.01-.001-.015.153.077.31.148.468.215 15.359 6.426 34.476 6 54.713 5.549 16.991-.38 34.562-.771 48.632 3.364 14.773 4.341 23.844 13.223 28.546 27.95 1.501 4.699 4.975 8.558 9.526 10.586 7.597 3.392 13.906 8.942 18.242 16.043 3.872 6.355 9.899 10.832 16.977 12.604 17.295 4.324 33.667 17.569 40.739 32.959 3.147 6.851 5.739 17.065 1.595 28.482h-320.021c-4.137-11.395-1.56-21.59 1.575-28.429zm-51.252 180.481c3.617-26.056 13.665-49.478 29.893-69.708 4.61 1.718 9.597 2.658 14.798 2.658h230.06c4.143 0 7.5-3.358 7.5-7.5s-3.357-7.5-7.5-7.5h-230.059c-15.163 0-27.5-12.336-27.5-27.5 0-7.347 2.86-14.253 8.054-19.447 5.192-5.193 12.1-8.053 19.446-8.053h330c15.163 0 27.5 12.336 27.5 27.5 0 7.347-2.86 14.253-8.054 19.447-5.192 5.193-12.1 8.053-19.446 8.053h-64.94c-4.143 0-7.5 3.358-7.5 7.5s3.357 7.5 7.5 7.5h64.94c5.13 0 10.121-.903 14.792-2.633 16.223 20.217 26.274 43.628 29.899 69.675.004.033.008.065.011.098h-103.504c-14.192-18.243-36.348-30-61.198-30h-90c-20.218 0-39.354 7.741-53.882 21.797-2.666 2.58-5.125 5.321-7.366 8.203h-103.455c.004-.03.008-.06.011-.09zm-1.537 15.09h95.841c-4.268 9.238-6.692 19.311-7.057 29.738-.145 4.139 3.094 7.612 7.233 7.757 4.101.146 7.612-3.094 7.757-7.234.567-16.216 7.316-31.375 19.004-42.684 11.715-11.334 27.146-17.577 43.451-17.577h90c34.463 0 62.5 28.038 62.5 62.5v30c0 34.462-28.037 62.5-62.5 62.5h-90c-16.305 0-31.736-6.243-43.451-17.578-11.688-11.309-18.437-26.468-19.004-42.684-.146-4.141-3.65-7.379-7.757-7.234-4.14.145-7.378 3.618-7.233 7.757.365 10.427 2.788 20.5 7.057 29.738h-89.292c-7.392-30.781-9.437-60.497-6.549-94.999zm330.052 173.221c-32.753 2.437-74.951 3.779-118.823 3.779s-86.071-1.342-118.822-3.779c-38.623-2.878-71.438-28.253-81.862-63.221h94.435c2.242 2.882 4.7 5.623 7.366 8.203 14.529 14.056 33.665 21.797 53.883 21.797h90c24.85 0 47.006-11.757 61.198-30h94.485c-10.424 34.969-43.239 60.343-81.86 63.221zm85.857-78.221h-89.328c4.587-9.889 7.148-20.901 7.148-32.5v-30c0-11.599-2.562-22.611-7.148-32.5h95.878c2.887 34.501.841 64.22-6.55 95z"/></g></g></svg>