<?xml version="1.0" standalone="no"?>
<!DOCTYPE svg PUBLIC "-//W3C//DTD SVG 20010904//EN"
 "http://www.w3.org/TR/2001/REC-SVG-20010904/DTD/svg10.dtd">
<svg version="1.0" xmlns="http://www.w3.org/2000/svg"
 width="700.000000pt" height="700.000000pt" viewBox="0 0 700.000000 700.000000"
 preserveAspectRatio="xMidYMid meet">
<metadata>
Created by potrace 1.14, written by Peter Selinger 2001-2017
</metadata>
<g transform="translate(0.000000,700.000000) scale(0.100000,-0.100000)"
fill="#000000" stroke="none">
<path d="M1895 6980 c-22 -11 -51 -37 -65 -58 l-25 -37 0 -445 c0 -408 1 -448
18 -478 23 -43 85 -82 130 -84 l37 -1 0 -156 c0 -222 -28 -348 -107 -490 -37
-66 -111 -147 -235 -254 -150 -129 -268 -373 -294 -602 -4 -33 -7 -904 -7
-1935 0 -1767 1 -1880 18 -1960 45 -211 184 -386 362 -453 l58 -22 1695 -2
c1494 -2 1702 -1 1753 13 212 56 378 264 413 519 9 66 9 3762 0 3840 -15 125
-69 299 -117 375 -5 8 -12 22 -16 30 -22 50 -123 167 -199 232 -113 96 -153
140 -197 219 -81 146 -107 263 -107 487 l0 157 36 2 c52 3 112 46 134 96 17
39 18 76 18 461 0 435 -2 456 -43 508 -49 61 1 58 -968 58 l-885 0 -31 -26
c-17 -14 -31 -32 -31 -39 0 -37 -19 -40 -281 -38 -140 0 -257 2 -261 2 -5 1
-8 9 -8 19 -1 21 -28 56 -57 71 -15 7 -130 11 -360 11 -318 0 -340 -1 -378
-20z"/>
</g>
</svg>
